PathFileType	4	(X/Y/Z)	./resultDataOpenSim/trcMotMarkerGrf/sub10/qtm-02-06.trc
DataRate	CameraRate	NumFrames	NumMarkers	Units	OrigDataRate	OrigDataStartFrame	OrigNumFrames
250.000000	250.000000	8	24	m	250.000000	1	546
Frame#	Time	L.Toe.Tip			R.Toe.Tip			L.Ankle.Lat			R.Ankle.Lat			L.Ankle.Med			R.Ankle.Med			L.Heel			R.Heel			L.Knee.Lat			R.Knee.Lat			L.Knee.Med			R.Knee.Med			L.Thigh.Upper			R.Thigh.Upper			L.ASIS			R.ASIS			V.Sacral			L.Acromium			R.Acromium			C7			L.Elbow			R.Elbow			L.Wrist.Lat			R.Wrist.Lat
		X1	Y1	Z1	X2	Y2	Z2	X3	Y3	Z3	X4	Y4	Z4	X5	Y5	Z5	X6	Y6	Z6	X7	Y7	Z7	X8	Y8	Z8	X9	Y9	Z9	X10	Y10	Z10	X11	Y11	Z11	X12	Y12	Z12	X13	Y13	Z13	X14	Y14	Z14	X15	Y15	Z15	X16	Y16	Z16	X17	Y17	Z17	X18	Y18	Z18	X19	Y19	Z19	X20	Y20	Z20	X21	Y21	Z21	X22	Y22	Z22	X23	Y23	Z23	X24	Y24	Z24

1	0	-1.4601684	0.038736458	-0.17276662	-1.1434426	0.063772863	-0.0033222176	-1.586574	0.064223042	-0.22348177	-1.2808413	0.07995954	-0.014633701	-1.5917564	0.088528242	-0.14105995	-1.2369503	0.10766873	-0.084864307	-1.6602106	0.037601014	-0.19829983	-1.3118177	0.052525589	-0.081093915	-1.4664625	0.43363085	-0.24372245	-1.2402362	0.47211778	0.039929846	-1.4827815	0.41392318	-0.12514662	-1.1993512	0.48503507	-0.081437501	-1.3831478	0.81960181	-0.29468673	-1.4093503	0.84959819	0.083898177	-1.3229981	0.92800308	-0.22862257	-1.3369211	0.941877	0.017335301	-1.5294059	0.94780385	-0.11843039	-1.3419959	1.4009947	-0.25773314	-1.3961683	1.3956855	0.062021906	-1.4452205	1.4391387	-0.11476805	-1.4282076	1.0686246	-0.3478599	-1.5317741	1.0654462	0.090387298	-1.2645033	0.88299214	-0.33152596	-1.4083565	0.86114689	0.15194911
2	0.004	-1.4601575	0.038733342	-0.17285118	-1.128172	0.064745799	-0.0019690766	-1.5865659	0.064341762	-0.22346463	-1.2661335	0.077590338	-0.013421672	-1.5916408	0.088648586	-0.14106777	-1.2226947	0.10643757	-0.083743669	-1.660227	0.037831761	-0.19826643	-1.2962567	0.049485908	-0.079992687	-1.4652735	0.43335375	-0.2438	-1.2354515	0.47110858	0.040434937	-1.4811563	0.41379328	-0.12514697	-1.194798	0.48435015	-0.080969819	-1.380026	0.81908786	-0.29462434	-1.4047552	0.84896287	0.084413441	-1.3194312	0.92734133	-0.22831998	-1.332393	0.94124307	0.017657895	-1.5254616	0.94704489	-0.11766545	-1.3378998	1.4002873	-0.25746152	-1.3924745	1.3949042	0.062270951	-1.4414149	1.4383833	-0.11472914	-1.422643	1.0673075	-0.34762681	-1.5298256	1.0651893	0.089931521	-1.256744	0.88352342	-0.33005293	-1.4073751	0.8605512	0.15278554
3	0.008	-1.4601499	0.03872888	-0.17293402	-1.1129486	0.065768523	-0.00064054116	-1.5865483	0.064468	-0.2234282	-1.2514071	0.075341605	-0.012230019	-1.5915213	0.088766872	-0.1410693	-1.2085958	0.10529857	-0.082596352	-1.6602431	0.03806786	-0.19822581	-1.28074	0.046591609	-0.078833618	-1.4640584	0.43308274	-0.24386684	-1.2306574	0.47009548	0.040950521	-1.4796155	0.4136247	-0.12514601	-1.1902864	0.48359864	-0.080494486	-1.3768703	0.81857813	-0.29450009	-1.4002195	0.8482809	0.084915423	-1.315971	0.92664539	-0.22806002	-1.3278839	0.94059938	0.017984126	-1.5214792	0.94628053	-0.11685136	-1.3337723	1.3995381	-0.25718844	-1.3885923	1.3941237	0.062540644	-1.4376038	1.4376019	-0.11469177	-1.4170835	1.0659908	-0.34740851	-1.5277123	1.0649587	0.089606755	-1.2489872	0.88406495	-0.32856248	-1.4063774	0.85994846	0.15360867
4	0.012	-1.4601402	0.03872342	-0.1730124	-1.0978257	0.066882656	0.00066333564	-1.586515	0.0645998	-0.22337766	-1.2366192	0.073305651	-0.010993182	-1.5913916	0.08888122	-0.14105766	-1.1947319	0.10428915	-0.081397269	-1.6602588	0.038322971	-0.19817046	-1.2652862	0.043921045	-0.07756769	-1.4627893	0.43281423	-0.24391828	-1.2258823	0.46904641	0.041470562	-1.4781562	0.41339273	-0.12513294	-1.1858292	0.48274398	-0.08002126	-1.3736651	0.81807352	-0.29429741	-1.3957164	0.84753388	0.085401016	-1.3125768	0.92591546	-0.22783175	-1.3234064	0.93993007	0.018302057	-1.5174549	0.94549716	-0.11598916	-1.3296126	1.39874	-0.25691376	-1.3845613	1.393335	0.062826563	-1.4337857	1.4367851	-0.11466165	-1.411513	1.0646628	-0.34717181	-1.5253233	1.0647693	0.089496255	-1.2412611	0.88461653	-0.32705978	-1.4053103	0.85933545	0.15440925
5	0.016	-1.4601102	0.038718695	-0.17309838	-1.082852	0.068133001	0.0019537308	-1.5864538	0.064728828	-0.22335599	-1.2217235	0.071555059	-0.0096061922	-1.5912478	0.088991041	-0.14102761	-1.181068	0.10342425	-0.080130037	-1.6602745	0.038619512	-0.1980948	-1.2499299	0.041491819	-0.076166971	-1.4614569	0.4325417	-0.24395905	-1.2211616	0.46792281	0.041983876	-1.4766952	0.41310096	-0.12509607	-1.1814213	0.48178252	-0.07956758	-1.3704271	0.81756795	-0.29404722	-1.3911407	0.84674182	0.085874133	-1.3091076	0.92517495	-0.22758624	-1.3189507	0.93922726	0.018594074	-1.5134121	0.94468645	-0.11510619	-1.3254535	1.3979088	-0.25664234	-1.3805952	1.3925338	0.063093776	-1.429968	1.4359385	-0.11464145	-1.4059193	1.063314	-0.34687287	-1.5226489	1.0646141	0.089598727	-1.2335866	0.88517395	-0.32554541	-1.4041011	0.85870959	0.15518074
6	0.02	-1.4600239	0.03872165	-0.17323739	-1.0680175	0.069575685	0.0032266784	-1.5863401	0.064851203	-0.22344904	-1.206685	0.070134106	-0.0080142335	-1.5910905	0.089099581	-0.14097786	-1.1674728	0.10273256	-0.078787353	-1.6602885	0.038975949	-0.19799392	-1.2346985	0.039294378	-0.07461688	-1.46007	0.4322624	-0.2439947	-1.2164914	0.46671535	0.042496129	-1.4751505	0.41277461	-0.12503571	-1.1770427	0.48072378	-0.079138896	-1.3671883	0.81704664	-0.29380398	-1.3864307	0.84592367	0.086337323	-1.3054791	0.92443872	-0.22730211	-1.3144547	0.93849578	0.018853028	-1.5093622	0.94384912	-0.1142187	-1.321321	1.3970564	-0.25637872	-1.3767974	1.3917208	0.063314193	-1.4261475	1.4350716	-0.11461705	-1.4002854	1.0619476	-0.34649483	-1.5197841	1.0644604	0.08981835	-1.2259377	0.88573896	-0.32400681	-1.4027196	0.85806307	0.15592193
7	0.024	-1.4598264	0.038748685	-0.17350366	-1.0532877	0.071258352	0.004449683	-1.5861572	0.064979127	-0.22374667	-1.1915964	0.069003292	-0.0062700664	-1.5909223	0.089218076	-0.14091029	-1.1538718	0.10223911	-0.077374604	-1.6602966	0.039386757	-0.19786406	-1.2196103	0.037312251	-0.072910527	-1.4586313	0.43197214	-0.24401944	-1.211847	0.465442	0.043027785	-1.4735052	0.41244051	-0.12495775	-1.1726722	0.47957636	-0.078726993	-1.3639878	0.81649509	-0.29362709	-1.381625	0.84507611	0.086790393	-1.3017356	0.923702	-0.22701101	-1.3098486	0.93774007	0.019079533	-1.5053013	0.9429865	-0.11333072	-1.3172123	1.3961849	-0.25611991	-1.3731061	1.3908902	0.063499735	-1.4223115	1.4341912	-0.11456882	-1.3945751	1.0605765	-0.34603296	-1.5168815	1.0642665	0.090011444	-1.2182877	0.88631224	-0.32244132	-1.4012379	0.85738775	0.15663914
8	0.028	-1.4594773	0.038815371	-0.17395102	-1.0386451	0.073198614	0.0055748002	-1.5859368	0.065144768	-0.22424077	-1.1766758	0.068050888	-0.0044732317	-1.5907451	0.08936374	-0.14082556	-1.1403173	0.1019471	-0.075905401	-1.6602968	0.039826259	-0.19770822	-1.2046775	0.035529062	-0.071054886	-1.4571304	0.43166474	-0.24401813	-1.2071895	0.4641221	0.043599308	-1.4717679	0.41211699	-0.1248583	-1.1683056	0.4783455	-0.078322438	-1.3608592	0.81590863	-0.29355378	-1.3767435	0.84420391	0.087238877	-1.2979808	0.92294418	-0.22675598	-1.3051239	0.9369572	0.019272235	-1.5012206	0.9420988	-0.11243556	-1.3131051	1.3952953	-0.25585626	-1.3694519	1.3900271	0.06368417	-1.4184499	1.4332969	-0.11448753	-1.3887553	1.0592109	-0.3454897	-1.5140621	1.064011	0.09007578	-1.210643	0.88688759	-0.32085073	-1.3997847	0.85668452	0.15734116
